#tb 0: 1/25
0,          1,          1,        1,   518400, 0xc93c7c47
0,          2,          2,        1,   518400, 0xfb452a9c
0,          4,          4,        1,   518400, 0x2f7a35bd
0,          6,          6,        1,   518400, 0xe63e30b9
0,          8,          8,        1,   518400, 0x39628205
0,          9,          9,        1,   518400, 0x17fa1ea4
0,         10,         10,        1,   518400, 0xd5ee83e2
0,         11,         11,        1,   518400, 0x611ee98d
0,         13,         13,        1,   518400, 0x07c1eeb8
0,         15,         15,        1,   518400, 0x9dff3418
0,         17,         17,        1,   518400, 0x87cd2f56
0,         18,         18,        1,   518400, 0x88675628
0,         20,         20,        1,   518400, 0x9bb8c9a0
0,         21,         21,        1,   518400, 0xe6c1df00
0,         22,         22,        1,   518400, 0xfcaab7a7
